<mxfile host="app.diagrams.net" modified="2022-12-14T07:19:17.982Z" agent="5.0 (Windows NT 10.0; Win64; x64) AppleWebKit/537.36 (KHTML, like Gecko) Chrome/108.0.0.0 Safari/537.36 Edg/108.0.1462.46" version="20.6.2" etag="dDfWiFMkGLSNTBA2vE97" type="github">
  <diagram id="L-gfl91bratvfqXzQLaW" name="Sayfa -1">
    <mxGraphModel dx="1038" dy="539" grid="1" gridSize="10" guides="1" tooltips="1" connect="1" arrows="1" fold="1" page="1" pageScale="1" pageWidth="827" pageHeight="1169" math="0" shadow="0">
      <root>
        <mxCell id="0" />
        <mxCell id="1" parent="0" />
        <mxCell id="eSbc9rUweD3cqbjinZHv-9" value="" style="edgeStyle=orthogonalEdgeStyle;rounded=0;orthogonalLoop=1;jettySize=auto;html=1;" edge="1" parent="1" source="eSbc9rUweD3cqbjinZHv-1" target="eSbc9rUweD3cqbjinZHv-8">
          <mxGeometry relative="1" as="geometry" />
        </mxCell>
        <mxCell id="eSbc9rUweD3cqbjinZHv-1" value="Zaman Serisi Y (Yaş Değeri)" style="rounded=1;whiteSpace=wrap;html=1;" vertex="1" parent="1">
          <mxGeometry x="560" y="40" width="176" height="100" as="geometry" />
        </mxCell>
        <mxCell id="eSbc9rUweD3cqbjinZHv-4" value="Yaş" style="text;html=1;strokeColor=none;fillColor=none;align=center;verticalAlign=middle;whiteSpace=wrap;rounded=0;" vertex="1" parent="1">
          <mxGeometry x="40" y="30" width="90" height="40" as="geometry" />
        </mxCell>
        <mxCell id="eSbc9rUweD3cqbjinZHv-5" value="Ortalama&lt;br&gt;Çevre Değeri" style="text;html=1;strokeColor=none;fillColor=none;align=center;verticalAlign=middle;whiteSpace=wrap;rounded=0;" vertex="1" parent="1">
          <mxGeometry x="400" y="380" width="70" height="40" as="geometry" />
        </mxCell>
        <mxCell id="eSbc9rUweD3cqbjinZHv-6" value="" style="endArrow=classic;html=1;rounded=0;" edge="1" parent="1">
          <mxGeometry width="50" height="50" relative="1" as="geometry">
            <mxPoint x="80" y="399.5" as="sourcePoint" />
            <mxPoint x="400" y="399.5" as="targetPoint" />
            <Array as="points">
              <mxPoint x="240" y="399.5" />
            </Array>
          </mxGeometry>
        </mxCell>
        <mxCell id="eSbc9rUweD3cqbjinZHv-7" value="" style="endArrow=classic;html=1;rounded=0;" edge="1" parent="1">
          <mxGeometry width="50" height="50" relative="1" as="geometry">
            <mxPoint x="80" y="400" as="sourcePoint" />
            <mxPoint x="80" y="80" as="targetPoint" />
          </mxGeometry>
        </mxCell>
        <mxCell id="eSbc9rUweD3cqbjinZHv-12" value="" style="edgeStyle=orthogonalEdgeStyle;rounded=0;orthogonalLoop=1;jettySize=auto;html=1;" edge="1" parent="1" source="eSbc9rUweD3cqbjinZHv-8" target="eSbc9rUweD3cqbjinZHv-11">
          <mxGeometry relative="1" as="geometry" />
        </mxCell>
        <mxCell id="eSbc9rUweD3cqbjinZHv-8" value="Ortalama Çevre Değeri" style="shape=process;whiteSpace=wrap;html=1;backgroundOutline=1;" vertex="1" parent="1">
          <mxGeometry x="558" y="210" width="180" height="90" as="geometry" />
        </mxCell>
        <mxCell id="eSbc9rUweD3cqbjinZHv-10" value="Bağımlı Yüksek Dereceden Fonksiyon" style="shape=cube;whiteSpace=wrap;html=1;boundedLbl=1;backgroundOutline=1;darkOpacity=0.05;darkOpacity2=0.1;" vertex="1" parent="1">
          <mxGeometry x="160" y="230" width="120" height="80" as="geometry" />
        </mxCell>
        <mxCell id="eSbc9rUweD3cqbjinZHv-14" value="" style="edgeStyle=orthogonalEdgeStyle;rounded=0;orthogonalLoop=1;jettySize=auto;html=1;" edge="1" parent="1" source="eSbc9rUweD3cqbjinZHv-11" target="eSbc9rUweD3cqbjinZHv-13">
          <mxGeometry relative="1" as="geometry" />
        </mxCell>
        <mxCell id="eSbc9rUweD3cqbjinZHv-11" value="Fonksiyon" style="shape=process;whiteSpace=wrap;html=1;backgroundOutline=1;" vertex="1" parent="1">
          <mxGeometry x="558" y="370" width="180" height="90" as="geometry" />
        </mxCell>
        <mxCell id="eSbc9rUweD3cqbjinZHv-13" value="Çıkış Değer" style="whiteSpace=wrap;html=1;" vertex="1" parent="1">
          <mxGeometry x="588" y="525" width="120" height="60" as="geometry" />
        </mxCell>
        <mxCell id="eSbc9rUweD3cqbjinZHv-16" value="" style="shape=flexArrow;endArrow=classic;html=1;rounded=0;fillColor=#0050ef;strokeColor=#001DBC;" edge="1" parent="1">
          <mxGeometry width="50" height="50" relative="1" as="geometry">
            <mxPoint x="300" y="290" as="sourcePoint" />
            <mxPoint x="550" y="410" as="targetPoint" />
          </mxGeometry>
        </mxCell>
        <mxCell id="eSbc9rUweD3cqbjinZHv-17" value="" style="shape=flexArrow;endArrow=classic;html=1;rounded=0;endSize=5;startSize=3;strokeWidth=1;fillColor=#0050ef;strokeColor=#001DBC;exitX=1;exitY=0.5;exitDx=0;exitDy=0;" edge="1" parent="1" source="eSbc9rUweD3cqbjinZHv-4">
          <mxGeometry width="50" height="50" relative="1" as="geometry">
            <mxPoint x="130" y="70" as="sourcePoint" />
            <mxPoint x="540" y="80" as="targetPoint" />
          </mxGeometry>
        </mxCell>
        <mxCell id="eSbc9rUweD3cqbjinZHv-19" value="" style="endArrow=classic;startArrow=classic;html=1;rounded=0;strokeWidth=1;startSize=3;endSize=5;" edge="1" parent="1">
          <mxGeometry width="50" height="50" relative="1" as="geometry">
            <mxPoint x="440" y="340" as="sourcePoint" />
            <mxPoint x="440" y="80" as="targetPoint" />
          </mxGeometry>
        </mxCell>
      </root>
    </mxGraphModel>
  </diagram>
</mxfile>
